<svg xmlns="http://www.w3.org/2000/svg" xmlns:xlink="http://www.w3.org/1999/xlink" width="500" zoomAndPan="magnify" viewBox="0 0 375 374.999991" height="500" preserveAspectRatio="xMidYMid meet" version="1.0"><defs><clipPath id="577d95dc4a"><path d="M 14.457031 72.03125 L 360.207031 72.03125 L 360.207031 303.03125 L 14.457031 303.03125 Z M 14.457031 72.03125 " clip-rule="nonzero"/></clipPath></defs><g clip-path="url(#577d95dc4a)"><path fill="#000000" d="M 192.738281 91.859375 L 209.929688 122.027344 L 211.78125 118.816406 L 213.066406 116.605469 C 215.5625 112.257812 218.914062 108.832031 222.835938 106.550781 C 226.6875 104.339844 231.324219 103.128906 236.390625 103.128906 C 246.589844 103.128906 254.71875 107.976562 259.714844 116.605469 L 292.878906 174.019531 L 292.878906 174.089844 L 326.046875 231.570312 C 328.542969 235.851562 329.753906 240.414062 329.753906 245.050781 C 329.753906 249.6875 328.542969 254.25 326.046875 258.53125 C 320.980469 267.300781 312.707031 271.9375 302.722656 271.9375 C 297.660156 271.9375 293.09375 270.726562 289.171875 268.515625 C 285.246094 266.230469 281.894531 262.878906 279.398438 258.457031 L 274.121094 249.328125 L 242.953125 195.34375 C 242.238281 199.40625 240.8125 203.472656 238.601562 207.324219 L 226.332031 228.574219 L 253.363281 275.359375 C 253.4375 275.574219 253.648438 275.789062 253.863281 276.074219 C 256.003906 279.496094 258.5 282.636719 261.210938 285.488281 C 264.917969 289.410156 269.128906 292.691406 273.765625 295.332031 C 282.464844 300.324219 292.308594 303.03125 302.863281 303.03125 C 323.90625 303.03125 342.523438 292.261719 353.078125 274.007812 C 358.355469 264.804688 361.066406 254.964844 361.066406 245.050781 C 361.066406 235.207031 358.425781 225.296875 353.078125 216.09375 L 353.078125 216.023438 L 319.910156 158.542969 L 286.746094 101.128906 L 286.746094 101.058594 C 281.609375 92.144531 274.476562 84.871094 265.632812 79.734375 C 256.929688 74.742188 247.089844 72.03125 236.53125 72.03125 C 225.90625 72.105469 216.0625 74.742188 207.359375 79.804688 L 207.289062 79.804688 C 202.796875 82.445312 198.660156 85.652344 194.949219 89.433594 C 194.234375 90.21875 193.453125 91.003906 192.738281 91.859375 Z M 187.460938 161.25 Z M 169.699219 130.085938 L 161.925781 116.679688 C 159.429688 112.328125 156.078125 108.902344 152.152344 106.621094 C 148.015625 104.269531 143.382812 103.199219 138.601562 103.199219 C 133.539062 103.199219 128.972656 104.410156 125.050781 106.621094 C 121.128906 108.902344 117.773438 112.257812 115.277344 116.679688 L 82.113281 174.089844 L 82.113281 174.160156 L 48.945312 231.644531 C 46.449219 235.921875 45.238281 240.484375 45.238281 245.121094 C 45.238281 249.6875 46.449219 254.25 48.945312 258.601562 L 48.945312 258.671875 C 54.011719 267.445312 62.285156 272.082031 72.269531 272.082031 C 77.332031 272.082031 81.898438 270.867188 85.820312 268.65625 C 89.746094 266.375 93.097656 263.023438 95.59375 258.601562 L 100.871094 249.472656 L 117.773438 220.230469 L 132.039062 195.554688 C 132.753906 199.621094 134.179688 203.6875 136.390625 207.539062 L 148.660156 228.789062 L 121.625 275.359375 C 121.554688 275.574219 121.339844 275.789062 121.128906 276.074219 C 118.988281 279.496094 116.492188 282.636719 113.78125 285.488281 C 110.070312 289.410156 105.863281 292.691406 101.226562 295.332031 C 92.527344 300.324219 82.683594 303.03125 72.128906 303.03125 C 51.015625 303.03125 32.46875 292.191406 21.984375 274.007812 C 16.777344 264.804688 14.066406 254.964844 14.066406 245.121094 L 14.066406 244.835938 C 14.066406 234.996094 16.777344 225.152344 22.054688 215.953125 L 55.222656 158.46875 L 88.390625 101.058594 L 88.390625 100.988281 C 93.667969 91.859375 100.871094 84.65625 109.5 79.664062 C 118.132812 74.8125 127.976562 72.105469 138.460938 72.105469 L 138.746094 72.105469 C 147.445312 72.105469 155.71875 73.957031 163.28125 77.523438 C 173.339844 82.230469 181.46875 89.433594 187.53125 98.992188 L 187.601562 98.917969 L 193.09375 108.546875 L 202.226562 124.59375 L 205.21875 129.871094 L 205.292969 130.085938 L 211.78125 141.28125 L 226.546875 166.816406 L 231.683594 175.730469 C 236.746094 184.5 236.746094 194.484375 231.683594 203.257812 L 227.261719 210.960938 L 212.78125 236.066406 C 207.429688 245.335938 198.230469 250.613281 187.53125 250.613281 C 176.832031 250.613281 167.632812 245.335938 162.28125 236.066406 L 147.804688 210.960938 L 143.382812 203.257812 C 138.316406 194.484375 138.316406 184.5 143.382812 175.730469 L 148.515625 166.816406 L 163.210938 141.28125 L 165.0625 138.074219 L 182.894531 169.3125 L 181.042969 172.519531 L 171.199219 189.492188 L 187.460938 217.734375 L 203.722656 189.492188 L 193.878906 172.519531 L 187.390625 161.324219 Z M 169.699219 130.085938 " fill-opacity="1" fill-rule="evenodd"/></g></svg>